<svg width="100%" height="100%" viewBox="0 0 1032 1032" version="1.1" xmlns="http://www.w3.org/2000/svg">

<rect height="101" style="fill: white" width="101" x="16" y="16"></rect>

<rect height="101" style="fill: white" width="101" x="116" y="16"></rect>

<rect height="101" style="fill: white" width="101" x="216" y="16"></rect>

<rect height="101" style="fill: white" width="101" x="316" y="16"></rect>

<rect height="101" style="fill: white" width="101" x="416" y="16"></rect>

<rect height="101" style="fill: white" width="101" x="516" y="16"></rect>

<rect height="101" style="fill: white" width="101" x="616" y="16"></rect>

<rect height="101" style="fill: white" width="101" x="716" y="16"></rect>

<rect height="101" style="fill: white" width="101" x="816" y="16"></rect>

<rect height="101" style="fill: white" width="101" x="916" y="16"></rect>

<rect height="101" style="fill: white" width="101" x="16" y="116"></rect>

<rect height="101" style="fill: white" width="101" x="116" y="116"></rect>

<rect height="101" style="fill: white" width="101" x="216" y="116"></rect>

<rect height="101" style="fill: white" width="101" x="316" y="116"></rect>

<rect height="101" style="fill: white" width="101" x="416" y="116"></rect>

<rect height="101" style="fill: white" width="101" x="516" y="116"></rect>

<rect height="101" style="fill: white" width="101" x="616" y="116"></rect>

<rect height="101" style="fill: white" width="101" x="716" y="116"></rect>

<rect height="101" style="fill: white" width="101" x="816" y="116"></rect>

<rect height="101" style="fill: white" width="101" x="916" y="116"></rect>

<rect height="101" style="fill: white" width="101" x="16" y="216"></rect>

<rect height="101" style="fill: white" width="101" x="116" y="216"></rect>

<rect height="101" style="fill: white" width="101" x="216" y="216"></rect>

<rect height="101" style="fill: white" width="101" x="316" y="216"></rect>

<rect height="101" style="fill: white" width="101" x="416" y="216"></rect>

<rect height="101" style="fill: white" width="101" x="516" y="216"></rect>

<rect height="101" style="fill: white" width="101" x="616" y="216"></rect>

<rect height="101" style="fill: white" width="101" x="716" y="216"></rect>

<rect height="101" style="fill: white" width="101" x="816" y="216"></rect>

<rect height="101" style="fill: white" width="101" x="916" y="216"></rect>

<rect height="101" style="fill: white" width="101" x="16" y="316"></rect>

<rect height="101" style="fill: white" width="101" x="116" y="316"></rect>

<rect height="101" style="fill: white" width="101" x="216" y="316"></rect>

<rect height="101" style="fill: white" width="101" x="316" y="316"></rect>

<rect height="101" style="fill: white" width="101" x="416" y="316"></rect>

<rect height="101" style="fill: white" width="101" x="516" y="316"></rect>

<rect height="101" style="fill: white" width="101" x="616" y="316"></rect>

<rect height="101" style="fill: white" width="101" x="716" y="316"></rect>

<rect height="101" style="fill: white" width="101" x="816" y="316"></rect>

<rect height="101" style="fill: white" width="101" x="916" y="316"></rect>

<rect height="101" style="fill: white" width="101" x="16" y="416"></rect>

<rect height="101" style="fill: white" width="101" x="116" y="416"></rect>

<rect height="101" style="fill: white" width="101" x="216" y="416"></rect>

<rect height="101" style="fill: white" width="101" x="316" y="416"></rect>

<rect height="101" style="fill: white" width="101" x="416" y="416"></rect>

<rect height="101" style="fill: white" width="101" x="516" y="416"></rect>

<rect height="101" style="fill: white" width="101" x="616" y="416"></rect>

<rect height="101" style="fill: white" width="101" x="716" y="416"></rect>

<rect height="101" style="fill: white" width="101" x="816" y="416"></rect>

<rect height="101" style="fill: white" width="101" x="916" y="416"></rect>

<rect height="101" style="fill: white" width="101" x="16" y="516"></rect>

<rect height="101" style="fill: white" width="101" x="116" y="516"></rect>

<rect height="101" style="fill: white" width="101" x="216" y="516"></rect>

<rect height="101" style="fill: white" width="101" x="316" y="516"></rect>

<rect height="101" style="fill: white" width="101" x="416" y="516"></rect>

<rect height="101" style="fill: white" width="101" x="516" y="516"></rect>

<rect height="101" style="fill: white" width="101" x="616" y="516"></rect>

<rect height="101" style="fill: white" width="101" x="716" y="516"></rect>

<rect height="101" style="fill: white" width="101" x="816" y="516"></rect>

<rect height="101" style="fill: white" width="101" x="916" y="516"></rect>

<rect height="101" style="fill: white" width="101" x="16" y="616"></rect>

<rect height="101" style="fill: white" width="101" x="116" y="616"></rect>

<rect height="101" style="fill: white" width="101" x="216" y="616"></rect>

<rect height="101" style="fill: white" width="101" x="316" y="616"></rect>

<rect height="101" style="fill: white" width="101" x="416" y="616"></rect>

<rect height="101" style="fill: white" width="101" x="516" y="616"></rect>

<rect height="101" style="fill: white" width="101" x="616" y="616"></rect>

<rect height="101" style="fill: white" width="101" x="716" y="616"></rect>

<rect height="101" style="fill: white" width="101" x="816" y="616"></rect>

<rect height="101" style="fill: white" width="101" x="916" y="616"></rect>

<rect height="101" style="fill: white" width="101" x="16" y="716"></rect>

<rect height="101" style="fill: white" width="101" x="116" y="716"></rect>

<rect height="101" style="fill: white" width="101" x="216" y="716"></rect>

<rect height="101" style="fill: white" width="101" x="316" y="716"></rect>

<rect height="101" style="fill: white" width="101" x="416" y="716"></rect>

<rect height="101" style="fill: white" width="101" x="516" y="716"></rect>

<rect height="101" style="fill: white" width="101" x="616" y="716"></rect>

<rect height="101" style="fill: white" width="101" x="716" y="716"></rect>

<rect height="101" style="fill: white" width="101" x="816" y="716"></rect>

<rect height="101" style="fill: white" width="101" x="916" y="716"></rect>

<rect height="101" style="fill: white" width="101" x="16" y="816"></rect>

<rect height="101" style="fill: white" width="101" x="116" y="816"></rect>

<rect height="101" style="fill: white" width="101" x="216" y="816"></rect>

<rect height="101" style="fill: white" width="101" x="316" y="816"></rect>

<rect height="101" style="fill: white" width="101" x="416" y="816"></rect>

<rect height="101" style="fill: white" width="101" x="516" y="816"></rect>

<rect height="101" style="fill: white" width="101" x="616" y="816"></rect>

<rect height="101" style="fill: white" width="101" x="716" y="816"></rect>

<rect height="101" style="fill: white" width="101" x="816" y="816"></rect>

<rect height="101" style="fill: white" width="101" x="916" y="816"></rect>

<rect height="101" style="fill: white" width="101" x="16" y="916"></rect>

<rect height="101" style="fill: white" width="101" x="116" y="916"></rect>

<rect height="101" style="fill: white" width="101" x="216" y="916"></rect>

<rect height="101" style="fill: white" width="101" x="316" y="916"></rect>

<rect height="101" style="fill: white" width="101" x="416" y="916"></rect>

<rect height="101" style="fill: white" width="101" x="516" y="916"></rect>

<rect height="101" style="fill: white" width="101" x="616" y="916"></rect>

<rect height="101" style="fill: white" width="101" x="716" y="916"></rect>

<rect height="101" style="fill: white" width="101" x="816" y="916"></rect>

<rect height="101" style="fill: white" width="101" x="916" y="916"></rect>


<line style="stroke: black; stroke-width: 2; stroke-linecap: round;" x1="916" x2="1016" y1="1016" y2="1016"></line><line style="stroke: black; stroke-width: 2; stroke-linecap: round;" x1="916" x2="916" y1="916" y2="1016"></line><line style="stroke: black; stroke-width: 2; stroke-linecap: round;" x1="1016" x2="1016" y1="916" y2="1016"></line><line style="stroke: black; stroke-width: 2; stroke-linecap: round;" x1="816" x2="916" y1="1016" y2="1016"></line><line style="stroke: black; stroke-width: 2; stroke-linecap: round;" x1="716" x2="816" y1="916" y2="916"></line><line style="stroke: black; stroke-width: 2; stroke-linecap: round;" x1="716" x2="816" y1="1016" y2="1016"></line><line style="stroke: black; stroke-width: 2; stroke-linecap: round;" x1="616" x2="716" y1="916" y2="916"></line><line style="stroke: black; stroke-width: 2; stroke-linecap: round;" x1="616" x2="716" y1="1016" y2="1016"></line><line style="stroke: black; stroke-width: 2; stroke-linecap: round;" x1="516" x2="616" y1="1016" y2="1016"></line><line style="stroke: black; stroke-width: 2; stroke-linecap: round;" x1="516" x2="516" y1="916" y2="1016"></line><line style="stroke: black; stroke-width: 2; stroke-linecap: round;" x1="416" x2="516" y1="1016" y2="1016"></line><line style="stroke: black; stroke-width: 2; stroke-linecap: round;" x1="316" x2="416" y1="1016" y2="1016"></line><line style="stroke: black; stroke-width: 2; stroke-linecap: round;" x1="316" x2="316" y1="916" y2="1016"></line><line style="stroke: black; stroke-width: 2; stroke-linecap: round;" x1="216" x2="316" y1="916" y2="916"></line><line style="stroke: black; stroke-width: 2; stroke-linecap: round;" x1="216" x2="316" y1="1016" y2="1016"></line><line style="stroke: black; stroke-width: 2; stroke-linecap: round;" x1="116" x2="216" y1="916" y2="916"></line><line style="stroke: black; stroke-width: 2; stroke-linecap: round;" x1="116" x2="216" y1="1016" y2="1016"></line><line style="stroke: black; stroke-width: 2; stroke-linecap: round;" x1="16" x2="116" y1="1016" y2="1016"></line><line style="stroke: black; stroke-width: 2; stroke-linecap: round;" x1="16" x2="16" y1="916" y2="1016"></line><line style="stroke: black; stroke-width: 2; stroke-linecap: round;" x1="916" x2="916" y1="816" y2="916"></line><line style="stroke: black; stroke-width: 2; stroke-linecap: round;" x1="1016" x2="1016" y1="816" y2="916"></line><line style="stroke: black; stroke-width: 2; stroke-linecap: round;" x1="816" x2="916" y1="816" y2="816"></line><line style="stroke: black; stroke-width: 2; stroke-linecap: round;" x1="716" x2="716" y1="816" y2="916"></line><line style="stroke: black; stroke-width: 2; stroke-linecap: round;" x1="616" x2="716" y1="816" y2="816"></line><line style="stroke: black; stroke-width: 2; stroke-linecap: round;" x1="516" x2="616" y1="816" y2="816"></line><line style="stroke: black; stroke-width: 2; stroke-linecap: round;" x1="516" x2="516" y1="816" y2="916"></line><line style="stroke: black; stroke-width: 2; stroke-linecap: round;" x1="416" x2="416" y1="816" y2="916"></line><line style="stroke: black; stroke-width: 2; stroke-linecap: round;" x1="316" x2="416" y1="816" y2="816"></line><line style="stroke: black; stroke-width: 2; stroke-linecap: round;" x1="216" x2="316" y1="816" y2="816"></line><line style="stroke: black; stroke-width: 2; stroke-linecap: round;" x1="116" x2="216" y1="816" y2="816"></line><line style="stroke: black; stroke-width: 2; stroke-linecap: round;" x1="16" x2="16" y1="816" y2="916"></line><line style="stroke: black; stroke-width: 2; stroke-linecap: round;" x1="916" x2="916" y1="716" y2="816"></line><line style="stroke: black; stroke-width: 2; stroke-linecap: round;" x1="1016" x2="1016" y1="716" y2="816"></line><line style="stroke: black; stroke-width: 2; stroke-linecap: round;" x1="816" x2="816" y1="716" y2="816"></line><line style="stroke: black; stroke-width: 2; stroke-linecap: round;" x1="716" x2="716" y1="716" y2="816"></line><line style="stroke: black; stroke-width: 2; stroke-linecap: round;" x1="516" x2="516" y1="716" y2="816"></line><line style="stroke: black; stroke-width: 2; stroke-linecap: round;" x1="416" x2="416" y1="716" y2="816"></line><line style="stroke: black; stroke-width: 2; stroke-linecap: round;" x1="316" x2="316" y1="716" y2="816"></line><line style="stroke: black; stroke-width: 2; stroke-linecap: round;" x1="116" x2="116" y1="716" y2="816"></line><line style="stroke: black; stroke-width: 2; stroke-linecap: round;" x1="16" x2="116" y1="716" y2="716"></line><line style="stroke: black; stroke-width: 2; stroke-linecap: round;" x1="16" x2="16" y1="716" y2="816"></line><line style="stroke: black; stroke-width: 2; stroke-linecap: round;" x1="916" x2="916" y1="616" y2="716"></line><line style="stroke: black; stroke-width: 2; stroke-linecap: round;" x1="1016" x2="1016" y1="616" y2="716"></line><line style="stroke: black; stroke-width: 2; stroke-linecap: round;" x1="816" x2="916" y1="616" y2="616"></line><line style="stroke: black; stroke-width: 2; stroke-linecap: round;" x1="716" x2="816" y1="616" y2="616"></line><line style="stroke: black; stroke-width: 2; stroke-linecap: round;" x1="616" x2="716" y1="616" y2="616"></line><line style="stroke: black; stroke-width: 2; stroke-linecap: round;" x1="616" x2="616" y1="616" y2="716"></line><line style="stroke: black; stroke-width: 2; stroke-linecap: round;" x1="516" x2="516" y1="616" y2="716"></line><line style="stroke: black; stroke-width: 2; stroke-linecap: round;" x1="416" x2="516" y1="616" y2="616"></line><line style="stroke: black; stroke-width: 2; stroke-linecap: round;" x1="316" x2="416" y1="616" y2="616"></line><line style="stroke: black; stroke-width: 2; stroke-linecap: round;" x1="216" x2="316" y1="616" y2="616"></line><line style="stroke: black; stroke-width: 2; stroke-linecap: round;" x1="216" x2="216" y1="616" y2="716"></line><line style="stroke: black; stroke-width: 2; stroke-linecap: round;" x1="116" x2="216" y1="616" y2="616"></line><line style="stroke: black; stroke-width: 2; stroke-linecap: round;" x1="16" x2="16" y1="616" y2="716"></line><line style="stroke: black; stroke-width: 2; stroke-linecap: round;" x1="916" x2="916" y1="516" y2="616"></line><line style="stroke: black; stroke-width: 2; stroke-linecap: round;" x1="1016" x2="1016" y1="516" y2="616"></line><line style="stroke: black; stroke-width: 2; stroke-linecap: round;" x1="716" x2="716" y1="516" y2="616"></line><line style="stroke: black; stroke-width: 2; stroke-linecap: round;" x1="516" x2="616" y1="516" y2="516"></line><line style="stroke: black; stroke-width: 2; stroke-linecap: round;" x1="516" x2="516" y1="516" y2="616"></line><line style="stroke: black; stroke-width: 2; stroke-linecap: round;" x1="316" x2="316" y1="516" y2="616"></line><line style="stroke: black; stroke-width: 2; stroke-linecap: round;" x1="116" x2="216" y1="516" y2="516"></line><line style="stroke: black; stroke-width: 2; stroke-linecap: round;" x1="16" x2="16" y1="516" y2="616"></line><line style="stroke: black; stroke-width: 2; stroke-linecap: round;" x1="916" x2="1016" y1="416" y2="416"></line><line style="stroke: black; stroke-width: 2; stroke-linecap: round;" x1="1016" x2="1016" y1="416" y2="516"></line><line style="stroke: black; stroke-width: 2; stroke-linecap: round;" x1="816" x2="916" y1="416" y2="416"></line><line style="stroke: black; stroke-width: 2; stroke-linecap: round;" x1="816" x2="816" y1="416" y2="516"></line><line style="stroke: black; stroke-width: 2; stroke-linecap: round;" x1="716" x2="816" y1="416" y2="416"></line><line style="stroke: black; stroke-width: 2; stroke-linecap: round;" x1="616" x2="716" y1="416" y2="416"></line><line style="stroke: black; stroke-width: 2; stroke-linecap: round;" x1="516" x2="616" y1="416" y2="416"></line><line style="stroke: black; stroke-width: 2; stroke-linecap: round;" x1="416" x2="516" y1="416" y2="416"></line><line style="stroke: black; stroke-width: 2; stroke-linecap: round;" x1="416" x2="416" y1="416" y2="516"></line><line style="stroke: black; stroke-width: 2; stroke-linecap: round;" x1="316" x2="316" y1="416" y2="516"></line><line style="stroke: black; stroke-width: 2; stroke-linecap: round;" x1="216" x2="316" y1="416" y2="416"></line><line style="stroke: black; stroke-width: 2; stroke-linecap: round;" x1="116" x2="216" y1="416" y2="416"></line><line style="stroke: black; stroke-width: 2; stroke-linecap: round;" x1="116" x2="116" y1="416" y2="516"></line><line style="stroke: black; stroke-width: 2; stroke-linecap: round;" x1="16" x2="16" y1="416" y2="516"></line><line style="stroke: black; stroke-width: 2; stroke-linecap: round;" x1="1016" x2="1016" y1="316" y2="416"></line><line style="stroke: black; stroke-width: 2; stroke-linecap: round;" x1="816" x2="816" y1="316" y2="416"></line><line style="stroke: black; stroke-width: 2; stroke-linecap: round;" x1="616" x2="716" y1="316" y2="316"></line><line style="stroke: black; stroke-width: 2; stroke-linecap: round;" x1="616" x2="616" y1="316" y2="416"></line><line style="stroke: black; stroke-width: 2; stroke-linecap: round;" x1="416" x2="416" y1="316" y2="416"></line><line style="stroke: black; stroke-width: 2; stroke-linecap: round;" x1="316" x2="416" y1="316" y2="316"></line><line style="stroke: black; stroke-width: 2; stroke-linecap: round;" x1="216" x2="316" y1="316" y2="316"></line><line style="stroke: black; stroke-width: 2; stroke-linecap: round;" x1="116" x2="116" y1="316" y2="416"></line><line style="stroke: black; stroke-width: 2; stroke-linecap: round;" x1="16" x2="16" y1="316" y2="416"></line><line style="stroke: black; stroke-width: 2; stroke-linecap: round;" x1="916" x2="1016" y1="216" y2="216"></line><line style="stroke: black; stroke-width: 2; stroke-linecap: round;" x1="916" x2="916" y1="216" y2="316"></line><line style="stroke: black; stroke-width: 2; stroke-linecap: round;" x1="1016" x2="1016" y1="216" y2="316"></line><line style="stroke: black; stroke-width: 2; stroke-linecap: round;" x1="816" x2="816" y1="216" y2="316"></line><line style="stroke: black; stroke-width: 2; stroke-linecap: round;" x1="716" x2="816" y1="216" y2="216"></line><line style="stroke: black; stroke-width: 2; stroke-linecap: round;" x1="616" x2="616" y1="216" y2="316"></line><line style="stroke: black; stroke-width: 2; stroke-linecap: round;" x1="516" x2="516" y1="216" y2="316"></line><line style="stroke: black; stroke-width: 2; stroke-linecap: round;" x1="416" x2="516" y1="216" y2="216"></line><line style="stroke: black; stroke-width: 2; stroke-linecap: round;" x1="316" x2="416" y1="216" y2="216"></line><line style="stroke: black; stroke-width: 2; stroke-linecap: round;" x1="216" x2="216" y1="216" y2="316"></line><line style="stroke: black; stroke-width: 2; stroke-linecap: round;" x1="16" x2="116" y1="216" y2="216"></line><line style="stroke: black; stroke-width: 2; stroke-linecap: round;" x1="16" x2="16" y1="216" y2="316"></line><line style="stroke: black; stroke-width: 2; stroke-linecap: round;" x1="1016" x2="1016" y1="116" y2="216"></line><line style="stroke: black; stroke-width: 2; stroke-linecap: round;" x1="816" x2="916" y1="116" y2="116"></line><line style="stroke: black; stroke-width: 2; stroke-linecap: round;" x1="816" x2="816" y1="116" y2="216"></line><line style="stroke: black; stroke-width: 2; stroke-linecap: round;" x1="716" x2="716" y1="116" y2="216"></line><line style="stroke: black; stroke-width: 2; stroke-linecap: round;" x1="616" x2="716" y1="116" y2="116"></line><line style="stroke: black; stroke-width: 2; stroke-linecap: round;" x1="516" x2="616" y1="116" y2="116"></line><line style="stroke: black; stroke-width: 2; stroke-linecap: round;" x1="516" x2="516" y1="116" y2="216"></line><line style="stroke: black; stroke-width: 2; stroke-linecap: round;" x1="416" x2="416" y1="116" y2="216"></line><line style="stroke: black; stroke-width: 2; stroke-linecap: round;" x1="216" x2="316" y1="116" y2="116"></line><line style="stroke: black; stroke-width: 2; stroke-linecap: round;" x1="216" x2="216" y1="116" y2="216"></line><line style="stroke: black; stroke-width: 2; stroke-linecap: round;" x1="116" x2="216" y1="116" y2="116"></line><line style="stroke: black; stroke-width: 2; stroke-linecap: round;" x1="16" x2="16" y1="116" y2="216"></line><line style="stroke: black; stroke-width: 2; stroke-linecap: round;" x1="916" x2="1016" y1="16" y2="16"></line><line style="stroke: black; stroke-width: 2; stroke-linecap: round;" x1="1016" x2="1016" y1="16" y2="116"></line><line style="stroke: black; stroke-width: 2; stroke-linecap: round;" x1="816" x2="916" y1="16" y2="16"></line><line style="stroke: black; stroke-width: 2; stroke-linecap: round;" x1="716" x2="816" y1="16" y2="16"></line><line style="stroke: black; stroke-width: 2; stroke-linecap: round;" x1="616" x2="716" y1="16" y2="16"></line><line style="stroke: black; stroke-width: 2; stroke-linecap: round;" x1="516" x2="616" y1="16" y2="16"></line><line style="stroke: black; stroke-width: 2; stroke-linecap: round;" x1="416" x2="516" y1="16" y2="16"></line><line style="stroke: black; stroke-width: 2; stroke-linecap: round;" x1="316" x2="416" y1="16" y2="16"></line><line style="stroke: black; stroke-width: 2; stroke-linecap: round;" x1="216" x2="316" y1="16" y2="16"></line><line style="stroke: black; stroke-width: 2; stroke-linecap: round;" x1="116" x2="216" y1="16" y2="16"></line><line style="stroke: black; stroke-width: 2; stroke-linecap: round;" x1="16" x2="116" y1="16" y2="16"></line><line style="stroke: black; stroke-width: 2; stroke-linecap: round;" x1="16" x2="16" y1="16" y2="116"></line>

<path d="M 666.0 866.0 L 566.0 866.0 L 566.0 966.0 L 666.0 966.0 L 766.0 966.0 L 866.0 966.0 L 866.0 866.0 L 766.0 866.0 L 766.0 766.0 L 766.0 666.0 L 666.0 666.0 L 666.0 766.0 L 566.0 766.0 L 566.0 666.0 L 566.0 566.0 L 666.0 566.0 L 666.0 466.0 L 566.0 466.0 L 466.0 466.0 L 466.0 566.0 L 366.0 566.0 L 366.0 466.0 L 366.0 366.0 L 266.0 366.0 L 166.0 366.0 L 166.0 266.0 L 66.0 266.0 L 66.0 366.0 L 66.0 466.0 L 66.0 566.0 L 66.0 666.0 L 166.0 666.0 L 166.0 766.0 L 266.0 766.0 L 266.0 666.0 L 366.0 666.0 L 466.0 666.0 L 466.0 766.0 L 466.0 866.0 L 466.0 966.0 L 366.0 966.0 L 366.0 866.0 L 266.0 866.0 L 166.0 866.0 L 66.0 866.0 L 66.0 966.0 L 166.0 966.0 L 266.0 966.0" fill="transparent" style="stroke: white; opacity: 0.3; stroke-width: 6; stroke-linecap: round"></path><path d="M 666.0 866.0 L 566.0 866.0 L 566.0 966.0 L 666.0 966.0 L 766.0 966.0 L 866.0 966.0 L 866.0 866.0 L 766.0 866.0 L 766.0 766.0 L 766.0 666.0 L 666.0 666.0 L 666.0 766.0 L 566.0 766.0 L 566.0 666.0 L 566.0 566.0 L 666.0 566.0 L 666.0 466.0 L 566.0 466.0 L 466.0 466.0 L 466.0 566.0 L 366.0 566.0 L 366.0 466.0 L 366.0 366.0 L 266.0 366.0 L 166.0 366.0 L 166.0 266.0 L 66.0 266.0 L 66.0 366.0 L 66.0 466.0 L 66.0 566.0 L 66.0 666.0 L 166.0 666.0 L 166.0 766.0 L 266.0 766.0 L 266.0 666.0 L 366.0 666.0 L 466.0 666.0 L 466.0 766.0 L 466.0 866.0 L 466.0 966.0 L 366.0 966.0 L 366.0 866.0 L 266.0 866.0 L 166.0 866.0 L 66.0 866.0 L 66.0 966.0 L 166.0 966.0 L 266.0 966.0" fill="transparent" style="stroke: black; stroke-width: 2; stroke-dasharray: 8 8; stroke-linecap: round"></path>


<circle cx="666.0" cy="866.0" fill="white" r="6" style="opacity: 0.3;"></circle><circle cx="666.0" cy="866.0" fill="black" r="3" style=""></circle><circle cx="266.0" cy="966.0" fill="white" r="6" style="opacity: 0.3;"></circle><circle cx="266.0" cy="966.0" fill="black" r="3" style=""></circle>

  </svg>